<svg id="e4e4f135-9a4b-4156-b946-a1b84402f72a" data-name="Layer 1" xmlns="http://www.w3.org/2000/svg" xmlns:xlink="http://www.w3.org/1999/xlink" viewBox="0 0 392.45 81.09"><defs><style>.e9a1376e-36ba-406a-b135-9aef645734ea{fill:url(#f0445b72-7e64-49da-a540-346aedec4dff);}.e05fe91b-297b-4618-93a2-76dfb144dc0c{fill:none;stroke:#f1f2ee;stroke-width:2px;}</style><linearGradient id="f0445b72-7e64-49da-a540-346aedec4dff" x1="200" y1="81.82" x2="200" y2="3.18" gradientUnits="userSpaceOnUse"><stop offset="0" stop-color="#931f1d"/><stop offset="1" stop-color="#141414"/></linearGradient></defs><path d="M23.46,9.16q8.68-6,11.84-6T45,8.89q6.57,5.7,8.2,8a10.51,10.51,0,0,1,1.63,6.14c0,4.92-.4,7.86-1.19,8.8A53,53,0,0,1,46.6,40q6.61,6.3,8.25,9.67Q55.72,52,56.7,63.52t1,17H41.38q0-4.89-.87-15.31t-1.9-12.6a16.85,16.85,0,0,0-2.44-3.8H26.5V80.51h-15V32.94q0-8.79-1.25-12.22A32.32,32.32,0,0,0,5,12.31L18,3.18A15.94,15.94,0,0,1,23.46,9.16Zm3,18.57v8.36h4.24c1,0,2.32-.79,3.91-2.39a14.1,14.1,0,0,0,3.09-4.07,9,9,0,0,0,.71-3.53,7.52,7.52,0,0,0-.71-3.31,24.26,24.26,0,0,0-2-3.31c-.87-1.23-1.6-1.85-2.18-1.85A25.5,25.5,0,0,0,26.18,19Q26.5,23.27,26.5,27.73Z" transform="translate(-3.55 -1.98)"/><path d="M66.25,22H80.59V62.38a6,6,0,0,0,1.74,3.85c1.15,1.34,2.24,2,3.25,2s3.12-1.48,6.3-4.45V22h14.34V80.51H95.14l-1.3-6.41q-8.15,7.73-11.41,7.72t-9.71-6q-6.47-6-6.47-11.89Z" transform="translate(-3.55 -1.98)"/><path d="M133.59,80.51H119.25V43a22.47,22.47,0,0,0-1.3-8.58,13.89,13.89,0,0,0-4.13-5.32l12-8.36a20.87,20.87,0,0,1,6,7.49q8-7.6,11.35-7.6t10,6q6.69,6,6.68,11.89v21a22.41,22.41,0,0,0,1.31,8.58,13.79,13.79,0,0,0,4.12,5.32l-11.94,8.37q-7.83-6.19-7.82-17.6V40.11a5.74,5.74,0,0,0-2-3.86,5.41,5.41,0,0,0-3.64-2q-1.68,0-6.24,4.56Z" transform="translate(-3.55 -1.98)"/><path d="M210.7,51.08V55H184.42A26.92,26.92,0,0,0,186,65.31,8.39,8.39,0,0,0,188,68a4.25,4.25,0,0,0,2.93,1.36c1,0,2.28-.87,3.8-2.61a19.18,19.18,0,0,0,3.59-6.3l11.18,7.93a26.66,26.66,0,0,1-9,9.45q-6,4-9.72,4t-10.69-5.76q-7-5.76-8.53-9t-1.52-15.86q0-12.65,1.52-15.85t8.53-9q7-5.76,10.26-5.76t10.26,5.76q7,5.76,8.53,9T210.7,51.08Zm-15-13.63a10.65,10.65,0,0,0-2.5-2.88A5.05,5.05,0,0,0,190,33.16q-1.47,0-3.31,2.88c-1.24,1.92-2,4.79-2.28,8.63H196.8C196.58,40.83,196.2,38.43,195.66,37.45Z" transform="translate(-3.55 -1.98)"/><path d="M264.67,23.06l.11,4.67V80.51h-15V34q0-9.12-1.24-12.82a33,33,0,0,0-5.27-8.9l13-9.13a19.18,19.18,0,0,1,5.87,7.06q8.56-7,11.62-7.06t9.61,5.71q6.57,5.7,8.2,8a10.51,10.51,0,0,1,1.63,6.14V80.51h-15.1V25.23a5.33,5.33,0,0,0-.81-2.44,18.73,18.73,0,0,0-2.5-3.31,4.58,4.58,0,0,0-3.15-1.85A6.51,6.51,0,0,0,268,19.31,13.13,13.13,0,0,0,264.67,23.06Z" transform="translate(-3.55 -1.98)"/><path d="M306.27,80.51V37.18q0-13.37,2.17-17.16T317.73,9.7q7.11-6.51,10.59-6.52,4.77,0,11.83,3.8a30.79,30.79,0,0,1,10.54,8.59l-12.06,8.36q-6.08-6.09-9.77-6.08a5.09,5.09,0,0,0-3.26,1.79,19.81,19.81,0,0,0-3.09,3.8c-.84,1.34-1.25,4.72-1.25,10.15v2.5H340.7V49.23H321.26V80.51Z" transform="translate(-3.55 -1.98)"/><path d="M395,4.49v13H380.88v63h-15v-63H351.78v-13Z" transform="translate(-3.55 -1.98)"/><path class="e9a1376e-36ba-406a-b135-9aef645734ea" d="M23.46,9.16q8.68-6,11.84-6T45,8.89q6.57,5.7,8.2,8a10.51,10.51,0,0,1,1.63,6.14c0,4.92-.4,7.86-1.19,8.8A53,53,0,0,1,46.6,40q6.61,6.3,8.25,9.67Q55.72,52,56.7,63.52t1,17H41.38q0-4.89-.87-15.31t-1.9-12.6a16.85,16.85,0,0,0-2.44-3.8H26.5V80.51h-15V32.94q0-8.79-1.25-12.22A32.32,32.32,0,0,0,5,12.31L18,3.18A15.94,15.94,0,0,1,23.46,9.16Zm3,18.57v8.36h4.24c1,0,2.32-.79,3.91-2.39a14.1,14.1,0,0,0,3.09-4.07,9,9,0,0,0,.71-3.53,7.52,7.52,0,0,0-.71-3.31,24.26,24.26,0,0,0-2-3.31c-.87-1.23-1.6-1.85-2.18-1.85A25.5,25.5,0,0,0,26.18,19Q26.5,23.27,26.5,27.73Z" transform="translate(-3.55 -1.98)"/><path class="e9a1376e-36ba-406a-b135-9aef645734ea" d="M66.25,22H80.59V62.38a6,6,0,0,0,1.74,3.85c1.15,1.34,2.24,2,3.25,2s3.12-1.48,6.3-4.45V22h14.34V80.51H95.14l-1.3-6.41q-8.15,7.73-11.41,7.72t-9.71-6q-6.47-6-6.47-11.89Z" transform="translate(-3.55 -1.98)"/><path class="e9a1376e-36ba-406a-b135-9aef645734ea" d="M133.59,80.51H119.25V43a22.47,22.47,0,0,0-1.3-8.58,13.89,13.89,0,0,0-4.13-5.32l12-8.36a20.87,20.87,0,0,1,6,7.49q8-7.6,11.35-7.6t10,6q6.69,6,6.68,11.89v21a22.41,22.41,0,0,0,1.31,8.58,13.79,13.79,0,0,0,4.12,5.32l-11.94,8.37q-7.83-6.19-7.82-17.6V40.11a5.74,5.74,0,0,0-2-3.86,5.41,5.41,0,0,0-3.64-2q-1.68,0-6.24,4.56Z" transform="translate(-3.55 -1.98)"/><path class="e9a1376e-36ba-406a-b135-9aef645734ea" d="M210.7,51.08V55H184.42A26.92,26.92,0,0,0,186,65.31,8.39,8.39,0,0,0,188,68a4.25,4.25,0,0,0,2.93,1.36c1,0,2.28-.87,3.8-2.61a19.18,19.18,0,0,0,3.59-6.3l11.18,7.93a26.66,26.66,0,0,1-9,9.45q-6,4-9.72,4t-10.69-5.76q-7-5.76-8.53-9t-1.52-15.86q0-12.65,1.52-15.85t8.53-9q7-5.76,10.26-5.76t10.26,5.76q7,5.76,8.53,9T210.7,51.08Zm-15-13.63a10.65,10.65,0,0,0-2.5-2.88A5.05,5.05,0,0,0,190,33.16q-1.47,0-3.31,2.88c-1.24,1.92-2,4.79-2.28,8.63H196.8C196.58,40.83,196.2,38.43,195.66,37.45Z" transform="translate(-3.55 -1.98)"/><path class="e9a1376e-36ba-406a-b135-9aef645734ea" d="M264.67,23.06l.11,4.67V80.51h-15V34q0-9.12-1.24-12.82a33,33,0,0,0-5.27-8.9l13-9.13a19.18,19.18,0,0,1,5.87,7.06q8.56-7,11.62-7.06t9.61,5.71q6.57,5.7,8.2,8a10.51,10.51,0,0,1,1.63,6.14V80.51h-15.1V25.23a5.33,5.33,0,0,0-.81-2.44,18.73,18.73,0,0,0-2.5-3.31,4.58,4.58,0,0,0-3.15-1.85A6.51,6.51,0,0,0,268,19.31,13.13,13.13,0,0,0,264.67,23.06Z" transform="translate(-3.55 -1.98)"/><path class="e9a1376e-36ba-406a-b135-9aef645734ea" d="M306.27,80.51V37.18q0-13.37,2.17-17.16T317.73,9.7q7.11-6.51,10.59-6.52,4.77,0,11.83,3.8a30.79,30.79,0,0,1,10.54,8.59l-12.06,8.36q-6.08-6.09-9.77-6.08a5.09,5.09,0,0,0-3.26,1.79,19.81,19.81,0,0,0-3.09,3.8c-.84,1.34-1.25,4.72-1.25,10.15v2.5H340.7V49.23H321.26V80.51Z" transform="translate(-3.55 -1.98)"/><path class="e9a1376e-36ba-406a-b135-9aef645734ea" d="M395,4.49v13H380.88v63h-15v-63H351.78v-13Z" transform="translate(-3.55 -1.98)"/><path class="e05fe91b-297b-4618-93a2-76dfb144dc0c" d="M23.46,9.16q8.68-6,11.84-6T45,8.89q6.57,5.7,8.2,8a10.51,10.51,0,0,1,1.63,6.14c0,4.92-.4,7.86-1.19,8.8A53,53,0,0,1,46.6,40q6.61,6.3,8.25,9.67Q55.72,52,56.7,63.52t1,17H41.38q0-4.89-.87-15.31t-1.9-12.6a16.85,16.85,0,0,0-2.44-3.8H26.5V80.51h-15V32.94q0-8.79-1.25-12.22A32.32,32.32,0,0,0,5,12.31L18,3.18A15.94,15.94,0,0,1,23.46,9.16Zm3,18.57v8.36h4.24c1,0,2.32-.79,3.91-2.39a14.1,14.1,0,0,0,3.09-4.07,9,9,0,0,0,.71-3.53,7.52,7.52,0,0,0-.71-3.31,24.26,24.26,0,0,0-2-3.31c-.87-1.23-1.6-1.85-2.18-1.85A25.5,25.5,0,0,0,26.18,19Q26.5,23.27,26.5,27.73Z" transform="translate(-3.55 -1.98)"/><path class="e05fe91b-297b-4618-93a2-76dfb144dc0c" d="M66.25,22H80.59V62.38a6,6,0,0,0,1.74,3.85c1.15,1.34,2.24,2,3.25,2s3.12-1.48,6.3-4.45V22h14.34V80.51H95.14l-1.3-6.41q-8.15,7.73-11.41,7.72t-9.71-6q-6.47-6-6.47-11.89Z" transform="translate(-3.55 -1.98)"/><path class="e05fe91b-297b-4618-93a2-76dfb144dc0c" d="M133.59,80.51H119.25V43a22.47,22.47,0,0,0-1.3-8.58,13.89,13.89,0,0,0-4.13-5.32l12-8.36a20.87,20.87,0,0,1,6,7.49q8-7.6,11.35-7.6t10,6q6.69,6,6.68,11.89v21a22.41,22.41,0,0,0,1.31,8.58,13.79,13.79,0,0,0,4.12,5.32l-11.94,8.37q-7.83-6.19-7.82-17.6V40.11a5.74,5.74,0,0,0-2-3.86,5.41,5.41,0,0,0-3.64-2q-1.68,0-6.24,4.56Z" transform="translate(-3.55 -1.98)"/><path class="e05fe91b-297b-4618-93a2-76dfb144dc0c" d="M210.7,51.08V55H184.42A26.92,26.92,0,0,0,186,65.31,8.39,8.39,0,0,0,188,68a4.25,4.25,0,0,0,2.93,1.36c1,0,2.28-.87,3.8-2.61a19.18,19.18,0,0,0,3.59-6.3l11.18,7.93a26.66,26.66,0,0,1-9,9.45q-6,4-9.72,4t-10.69-5.76q-7-5.76-8.53-9t-1.52-15.86q0-12.65,1.52-15.85t8.53-9q7-5.76,10.26-5.76t10.26,5.76q7,5.76,8.53,9T210.7,51.08Zm-15-13.63a10.65,10.65,0,0,0-2.5-2.88A5.05,5.05,0,0,0,190,33.16q-1.47,0-3.31,2.88c-1.24,1.92-2,4.79-2.28,8.63H196.8C196.58,40.83,196.2,38.43,195.66,37.45Z" transform="translate(-3.55 -1.98)"/><path class="e05fe91b-297b-4618-93a2-76dfb144dc0c" d="M264.67,23.06l.11,4.67V80.51h-15V34q0-9.12-1.24-12.82a33,33,0,0,0-5.27-8.9l13-9.13a19.18,19.18,0,0,1,5.87,7.06q8.56-7,11.62-7.06t9.61,5.71q6.57,5.7,8.2,8a10.51,10.51,0,0,1,1.63,6.14V80.51h-15.1V25.23a5.33,5.33,0,0,0-.81-2.44,18.73,18.73,0,0,0-2.5-3.31,4.58,4.58,0,0,0-3.15-1.85A6.51,6.51,0,0,0,268,19.31,13.13,13.13,0,0,0,264.67,23.06Z" transform="translate(-3.55 -1.98)"/><path class="e05fe91b-297b-4618-93a2-76dfb144dc0c" d="M306.27,80.51V37.18q0-13.37,2.17-17.16T317.73,9.7q7.11-6.51,10.59-6.52,4.77,0,11.83,3.8a30.79,30.79,0,0,1,10.54,8.59l-12.06,8.36q-6.08-6.09-9.77-6.08a5.09,5.09,0,0,0-3.26,1.79,19.81,19.81,0,0,0-3.09,3.8c-.84,1.34-1.25,4.72-1.25,10.15v2.5H340.7V49.23H321.26V80.51Z" transform="translate(-3.55 -1.98)"/><path class="e05fe91b-297b-4618-93a2-76dfb144dc0c" d="M395,4.49v13H380.88v63h-15v-63H351.78v-13Z" transform="translate(-3.55 -1.98)"/></svg>