<?xml version="1.0" encoding="utf-8"?>
<!-- Generator: Adobe Illustrator 26.0.3, SVG Export Plug-In . SVG Version: 6.00 Build 0)  -->
<svg version="1.1" id="e4e4f135-9a4b-4156-b946-a1b84402f72a"
	 xmlns="http://www.w3.org/2000/svg" xmlns:xlink="http://www.w3.org/1999/xlink" x="0px" y="0px" viewBox="0 0 392.5 81.1"
	 style="enable-background:new 0 0 392.5 81.1;" xml:space="preserve">
<style type="text/css">
	.st0{fill:url(#SVGID_1_);}
	.st1{fill:url(#SVGID_00000135677585786068490230000015466918676673263749_);}
	.st2{fill:url(#SVGID_00000049942590401575543290000014431265720766060441_);}
	.st3{fill:url(#SVGID_00000090280539415624422850000005713646829223932070_);}
	.st4{fill:url(#SVGID_00000171695234867632602520000012270006988054916022_);}
	.st5{fill:url(#SVGID_00000075847298802639890540000017197552743561416119_);}
	.st6{fill:url(#SVGID_00000168107478360717001690000014051451646969952424_);}
	.st7{fill:none;stroke:#F1F2EE;stroke-width:2;}
</style>
<path d="M19.9,7.2c5.8-4,9.7-6,11.8-6s5.3,1.9,9.7,5.7c4.4,3.8,7.1,6.5,8.2,8c1.2,1.8,1.7,4,1.6,6.1c0,4.9-0.4,7.9-1.2,8.8
	c-2.1,3-4.4,5.7-7,8.2c4.4,4.2,7.2,7.4,8.2,9.7c0.6,1.6,1.2,6.2,1.9,13.9c0.7,7.7,1,13.3,1,17H37.8c0-3.3-0.3-8.4-0.9-15.3
	c-0.6-6.9-1.2-11.1-1.9-12.6c-0.6-1.4-1.5-2.6-2.4-3.8H23v31.7h-15V31c0-5.9-0.4-9.9-1.2-12.2c-1.3-3.1-3.1-5.9-5.2-8.4l13-9.1
	C16.8,2.7,18.6,4.7,19.9,7.2z M22.9,25.8v8.4h4.2c1,0,2.3-0.8,3.9-2.4c1.3-1.2,2.3-2.5,3.1-4.1c0.5-1.1,0.7-2.3,0.7-3.5
	c0-1.1-0.2-2.3-0.7-3.3c-0.6-1.2-1.2-2.3-2-3.3c-0.9-1.2-1.6-1.9-2.2-1.9c-2.5,0.1-5,0.6-7.3,1.4C22.8,19.9,23,22.8,22.9,25.8
	L22.9,25.8z"/>
<path d="M62.7,20H77v40.4c0.1,1.5,0.7,2.8,1.7,3.8c1.2,1.3,2.2,2,3.2,2s3.1-1.5,6.3-4.4V20h14.3v58.5H91.6l-1.3-6.4
	c-5.4,5.2-9.2,7.7-11.4,7.7s-5.4-2-9.7-6c-4.3-4-6.5-8-6.5-11.9L62.7,20z"/>
<path d="M130,78.5h-14.3V41c0.1-2.9-0.3-5.8-1.3-8.6c-0.9-2.1-2.3-3.9-4.1-5.3l12-8.4c2.6,2,4.6,4.6,6,7.5c5.3-5.1,9.1-7.6,11.4-7.6
	s5.6,2,10,6c4.5,4,6.7,8,6.7,11.9v21c-0.1,2.9,0.3,5.8,1.3,8.6c0.9,2.1,2.3,3.9,4.1,5.3l-11.9,8.4c-5.2-4.1-7.8-10-7.8-17.6V38.1
	c-0.1-1.5-0.9-2.9-2-3.9c-0.9-1.1-2.2-1.8-3.6-2c-1.1,0-3.2,1.5-6.2,4.6L130,78.5z"/>
<path d="M207.1,49.1V53h-26.3c-0.2,3.5,0.4,7,1.6,10.3c0.5,1,1.2,1.9,2,2.7c0.8,0.8,1.8,1.3,2.9,1.4c1,0,2.3-0.9,3.8-2.6
	c1.6-1.9,2.8-4,3.6-6.3l11.2,7.9c-2.2,3.8-5.3,7.1-9,9.4c-4,2.7-7.2,4-9.7,4c-2.5,0-6-1.9-10.7-5.8c-4.7-3.8-7.5-6.8-8.5-9
	c-1-2.2-1.5-7.4-1.5-15.9c0-8.4,0.5-13.7,1.5-15.8c1-2.1,3.9-5.1,8.5-9c4.7-3.8,8.1-5.8,10.3-5.8c2.2,0,5.6,1.9,10.3,5.8
	s7.5,6.8,8.5,9C206.6,35.5,207.1,40.8,207.1,49.1z M192.1,35.5c-0.7-1.1-1.5-2.1-2.5-2.9c-0.9-0.8-2-1.3-3.2-1.4c-1,0-2.1,1-3.3,2.9
	c-1.2,1.9-2,4.8-2.3,8.6h12.4C193,38.9,192.6,36.5,192.1,35.5L192.1,35.5z"/>
<path d="M261.1,21.1l0.1,4.7v52.8h-15V32c0-6.1-0.4-10.4-1.2-12.8c-1.3-3.2-3.1-6.2-5.3-8.9l13-9.1c2.5,1.8,4.5,4.3,5.9,7.1
	c5.7-4.7,9.6-7,11.6-7.1c2,0,5.2,1.9,9.6,5.7c4.4,3.8,7.1,6.5,8.2,8c1.2,1.8,1.7,4,1.6,6.1v57.5h-15.1V23.2
	c-0.1-0.9-0.3-1.7-0.8-2.4c-0.7-1.2-1.5-2.3-2.5-3.3c-0.7-1-1.9-1.7-3.1-1.9c-1.4,0.2-2.6,0.8-3.6,1.7
	C263.1,18.4,262,19.6,261.1,21.1z"/>
<path d="M298.7,78.5V35.2c0-8.9,0.7-14.6,2.2-17.2s4.5-6,9.3-10.3c4.7-4.3,8.3-6.5,10.6-6.5c3.2,0,7.1,1.3,11.8,3.8
	c4.1,2,7.7,5,10.5,8.6L331.1,22c-4.1-4.1-7.3-6.1-9.8-6.1c-1.3,0.2-2.4,0.8-3.3,1.8c-1.2,1.1-2.2,2.4-3.1,3.8
	c-0.8,1.3-1.2,4.7-1.2,10.1v2.5h19.4v13.1h-19.4v31.3H298.7z"/>
<path d="M391.5,2.5v13h-14.1v63h-15v-63h-14.1v-13L391.5,2.5z"/>
<linearGradient id="SVGID_1_" gradientUnits="userSpaceOnUse" x1="31.35" y1="2.18" x2="31.35" y2="80.82" gradientTransform="matrix(1 0 0 -1 -3.55 82.02)">
	<stop  offset="0" style="stop-color:#931F1D"/>
	<stop  offset="1" style="stop-color:#141414"/>
</linearGradient>
<path class="st0" d="M19.9,7.2c5.8-4,9.7-6,11.8-6s5.3,1.9,9.7,5.7c4.4,3.8,7.1,6.5,8.2,8c1.2,1.8,1.7,4,1.6,6.1
	c0,4.9-0.4,7.9-1.2,8.8c-2.1,3-4.4,5.7-7,8.2c4.4,4.2,7.2,7.4,8.2,9.7c0.6,1.6,1.2,6.2,1.9,13.9c0.7,7.7,1,13.3,1,17H37.8
	c0-3.3-0.3-8.4-0.9-15.3c-0.6-6.9-1.2-11.1-1.9-12.6c-0.6-1.4-1.5-2.6-2.4-3.8H23v31.7h-15V31c0-5.9-0.4-9.9-1.2-12.2
	c-1.3-3.1-3.1-5.9-5.2-8.4l13-9.1C16.8,2.7,18.6,4.7,19.9,7.2z M22.9,25.8v8.4h4.2c1,0,2.3-0.8,3.9-2.4c1.3-1.2,2.3-2.5,3.1-4.1
	c0.5-1.1,0.7-2.3,0.7-3.5c0-1.1-0.2-2.3-0.7-3.3c-0.6-1.2-1.2-2.3-2-3.3c-0.9-1.2-1.6-1.9-2.2-1.9c-2.5,0.1-5,0.6-7.3,1.4
	C22.8,19.9,23,22.8,22.9,25.8L22.9,25.8z"/>
<linearGradient id="SVGID_00000133496216083948882020000006711810904434941080_" gradientUnits="userSpaceOnUse" x1="86.235" y1="2.18" x2="86.235" y2="80.82" gradientTransform="matrix(1 0 0 -1 -3.55 82.02)">
	<stop  offset="0" style="stop-color:#931F1D"/>
	<stop  offset="1" style="stop-color:#141414"/>
</linearGradient>
<path style="fill:url(#SVGID_00000133496216083948882020000006711810904434941080_);" d="M62.7,20H77v40.4c0.1,1.5,0.7,2.8,1.7,3.8
	c1.2,1.3,2.2,2,3.2,2s3.1-1.5,6.3-4.4V20h14.3v58.5H91.6l-1.3-6.4c-5.4,5.2-9.2,7.7-11.4,7.7s-5.4-2-9.7-6c-4.3-4-6.5-8-6.5-11.9
	L62.7,20z"/>
<linearGradient id="SVGID_00000121258709705888939300000009575049093957486219_" gradientUnits="userSpaceOnUse" x1="139.55" y1="2.21" x2="139.55" y2="80.85" gradientTransform="matrix(1 0 0 -1 -3.55 82.02)">
	<stop  offset="0" style="stop-color:#931F1D"/>
	<stop  offset="1" style="stop-color:#141414"/>
</linearGradient>
<path style="fill:url(#SVGID_00000121258709705888939300000009575049093957486219_);" d="M130,78.5h-14.3V41
	c0.1-2.9-0.3-5.8-1.3-8.6c-0.9-2.1-2.3-3.9-4.1-5.3l12-8.4c2.6,2,4.6,4.6,6,7.5c5.3-5.1,9.1-7.6,11.4-7.6s5.6,2,10,6
	c4.5,4,6.7,8,6.7,11.9v21c-0.1,2.9,0.3,5.8,1.3,8.6c0.9,2.1,2.3,3.9,4.1,5.3l-11.9,8.4c-5.2-4.1-7.8-10-7.8-17.6V38.1
	c-0.1-1.5-0.9-2.9-2-3.9c-0.9-1.1-2.2-1.8-3.6-2c-1.1,0-3.2,1.5-6.2,4.6L130,78.5z"/>
<linearGradient id="SVGID_00000158707616943444546190000012198204905048227473_" gradientUnits="userSpaceOnUse" x1="190.37" y1="2.17" x2="190.37" y2="80.81" gradientTransform="matrix(1 0 0 -1 -3.55 82.02)">
	<stop  offset="0" style="stop-color:#931F1D"/>
	<stop  offset="1" style="stop-color:#141414"/>
</linearGradient>
<path style="fill:url(#SVGID_00000158707616943444546190000012198204905048227473_);" d="M207.1,49.1V53h-26.3
	c-0.2,3.5,0.4,7,1.6,10.3c0.5,1,1.2,1.9,2,2.7c0.8,0.8,1.8,1.3,2.9,1.4c1,0,2.3-0.9,3.8-2.6c1.6-1.9,2.8-4,3.6-6.3l11.2,7.9
	c-2.2,3.8-5.3,7.1-9,9.4c-4,2.7-7.2,4-9.7,4c-2.5,0-6-1.9-10.7-5.8c-4.7-3.8-7.5-6.8-8.5-9c-1-2.2-1.5-7.4-1.5-15.9
	c0-8.4,0.5-13.7,1.5-15.8c1-2.1,3.9-5.1,8.5-9c4.7-3.8,8.1-5.8,10.3-5.8c2.2,0,5.6,1.9,10.3,5.8s7.5,6.8,8.5,9
	C206.6,35.5,207.1,40.8,207.1,49.1z M192.1,35.5c-0.7-1.1-1.5-2.1-2.5-2.9c-0.9-0.8-2-1.3-3.2-1.4c-1,0-2.1,1-3.3,2.9
	c-1.2,1.9-2,4.8-2.3,8.6h12.4C193,38.9,192.6,36.5,192.1,35.5L192.1,35.5z"/>
<linearGradient id="SVGID_00000017515615131776909130000003262521439798541717_" gradientUnits="userSpaceOnUse" x1="268.2409" y1="2.18" x2="268.2409" y2="80.82" gradientTransform="matrix(1 0 0 -1 -3.55 82.02)">
	<stop  offset="0" style="stop-color:#931F1D"/>
	<stop  offset="1" style="stop-color:#141414"/>
</linearGradient>
<path style="fill:url(#SVGID_00000017515615131776909130000003262521439798541717_);" d="M261.1,21.1l0.1,4.7v52.8h-15V32
	c0-6.1-0.4-10.4-1.2-12.8c-1.3-3.2-3.1-6.2-5.3-8.9l13-9.1c2.5,1.8,4.5,4.3,5.9,7.1c5.7-4.7,9.6-7,11.6-7.1c2,0,5.2,1.9,9.6,5.7
	c4.4,3.8,7.1,6.5,8.2,8c1.2,1.8,1.7,4,1.6,6.1v57.5h-15.1V23.2c-0.1-0.9-0.3-1.7-0.8-2.4c-0.7-1.2-1.5-2.3-2.5-3.3
	c-0.7-1-1.9-1.7-3.1-1.9c-1.4,0.2-2.6,0.8-3.6,1.7C263.1,18.4,262,19.6,261.1,21.1z"/>
<linearGradient id="SVGID_00000099625829689927924510000001083883086667552141_" gradientUnits="userSpaceOnUse" x1="324.48" y1="2.18" x2="324.48" y2="80.82" gradientTransform="matrix(1 0 0 -1 -3.55 82.02)">
	<stop  offset="0" style="stop-color:#931F1D"/>
	<stop  offset="1" style="stop-color:#141414"/>
</linearGradient>
<path style="fill:url(#SVGID_00000099625829689927924510000001083883086667552141_);" d="M298.7,78.5V35.2c0-8.9,0.7-14.6,2.2-17.2
	s4.5-6,9.3-10.3c4.7-4.3,8.3-6.5,10.6-6.5c3.2,0,7.1,1.3,11.8,3.8c4.1,2,7.7,5,10.5,8.6L331.1,22c-4.1-4.1-7.3-6.1-9.8-6.1
	c-1.3,0.2-2.4,0.8-3.3,1.8c-1.2,1.1-2.2,2.4-3.1,3.8c-0.8,1.3-1.2,4.7-1.2,10.1v2.5h19.4v13.1h-19.4v31.3H298.7z"/>
<linearGradient id="SVGID_00000039094408721622600860000000134029583803162029_" gradientUnits="userSpaceOnUse" x1="373.39" y1="2.18" x2="373.39" y2="80.82" gradientTransform="matrix(1 0 0 -1 -3.55 82.02)">
	<stop  offset="0" style="stop-color:#931F1D"/>
	<stop  offset="1" style="stop-color:#141414"/>
</linearGradient>
<path style="fill:url(#SVGID_00000039094408721622600860000000134029583803162029_);" d="M391.5,2.5v13h-14.1v63h-15v-63h-14.1v-13
	L391.5,2.5z"/>
<path class="st7" d="M19.9,7.2c5.8-4,9.7-6,11.8-6s5.3,1.9,9.7,5.7c4.4,3.8,7.1,6.5,8.2,8c1.2,1.8,1.7,4,1.6,6.1
	c0,4.9-0.4,7.9-1.2,8.8c-2.1,3-4.4,5.7-7,8.2c4.4,4.2,7.2,7.4,8.2,9.7c0.6,1.6,1.2,6.2,1.9,13.9c0.7,7.7,1,13.3,1,17H37.8
	c0-3.3-0.3-8.4-0.9-15.3c-0.6-6.9-1.2-11.1-1.9-12.6c-0.6-1.4-1.5-2.6-2.4-3.8H23v31.7h-15V31c0-5.9-0.4-9.9-1.2-12.2
	c-1.3-3.1-3.1-5.9-5.2-8.4l13-9.1C16.8,2.7,18.6,4.7,19.9,7.2z M22.9,25.8v8.4h4.2c1,0,2.3-0.8,3.9-2.4c1.3-1.2,2.3-2.5,3.1-4.1
	c0.5-1.1,0.7-2.3,0.7-3.5c0-1.1-0.2-2.3-0.7-3.3c-0.6-1.2-1.2-2.3-2-3.3c-0.9-1.2-1.6-1.9-2.2-1.9c-2.5,0.1-5,0.6-7.3,1.4
	C22.8,19.9,23,22.8,22.9,25.8L22.9,25.8z"/>
<path class="st7" d="M62.7,20H77v40.4c0.1,1.5,0.7,2.8,1.7,3.8c1.2,1.3,2.2,2,3.2,2s3.1-1.5,6.3-4.4V20h14.3v58.5H91.6l-1.3-6.4
	c-5.4,5.2-9.2,7.7-11.4,7.7s-5.4-2-9.7-6c-4.3-4-6.5-8-6.5-11.9L62.7,20z"/>
<path class="st7" d="M130,78.5h-14.3V41c0.1-2.9-0.3-5.8-1.3-8.6c-0.9-2.1-2.3-3.9-4.1-5.3l12-8.4c2.6,2,4.6,4.6,6,7.5
	c5.3-5.1,9.1-7.6,11.4-7.6s5.6,2,10,6c4.5,4,6.7,8,6.7,11.9v21c-0.1,2.9,0.3,5.8,1.3,8.6c0.9,2.1,2.3,3.9,4.1,5.3l-11.9,8.4
	c-5.2-4.1-7.8-10-7.8-17.6V38.1c-0.1-1.5-0.9-2.9-2-3.9c-0.9-1.1-2.2-1.8-3.6-2c-1.1,0-3.2,1.5-6.2,4.6L130,78.5z"/>
<path class="st7" d="M207.1,49.1V53h-26.3c-0.2,3.5,0.4,7,1.6,10.3c0.5,1,1.2,1.9,2,2.7c0.8,0.8,1.8,1.3,2.9,1.4
	c1,0,2.3-0.9,3.8-2.6c1.6-1.9,2.8-4,3.6-6.3l11.2,7.9c-2.2,3.8-5.3,7.1-9,9.4c-4,2.7-7.2,4-9.7,4c-2.5,0-6-1.9-10.7-5.8
	c-4.7-3.8-7.5-6.8-8.5-9c-1-2.2-1.5-7.4-1.5-15.9c0-8.4,0.5-13.7,1.5-15.8c1-2.1,3.9-5.1,8.5-9c4.7-3.8,8.1-5.8,10.3-5.8
	c2.2,0,5.6,1.9,10.3,5.8s7.5,6.8,8.5,9C206.6,35.5,207.1,40.8,207.1,49.1z M192.1,35.5c-0.7-1.1-1.5-2.1-2.5-2.9
	c-0.9-0.8-2-1.3-3.2-1.4c-1,0-2.1,1-3.3,2.9c-1.2,1.9-2,4.8-2.3,8.6h12.4C193,38.9,192.6,36.5,192.1,35.5L192.1,35.5z"/>
<path class="st7" d="M261.1,21.1l0.1,4.7v52.8h-15V32c0-6.1-0.4-10.4-1.2-12.8c-1.3-3.2-3.1-6.2-5.3-8.9l13-9.1
	c2.5,1.8,4.5,4.3,5.9,7.1c5.7-4.7,9.6-7,11.6-7.1c2,0,5.2,1.9,9.6,5.7c4.4,3.8,7.1,6.5,8.2,8c1.2,1.8,1.7,4,1.6,6.1v57.5h-15.1V23.2
	c-0.1-0.9-0.3-1.7-0.8-2.4c-0.7-1.2-1.5-2.3-2.5-3.3c-0.7-1-1.9-1.7-3.1-1.9c-1.4,0.2-2.6,0.8-3.6,1.7
	C263.1,18.4,262,19.6,261.1,21.1z"/>
<path class="st7" d="M298.7,78.5V35.2c0-8.9,0.7-14.6,2.2-17.2s4.5-6,9.3-10.3c4.7-4.3,8.3-6.5,10.6-6.5c3.2,0,7.1,1.3,11.8,3.8
	c4.1,2,7.7,5,10.5,8.6L331.1,22c-4.1-4.1-7.3-6.1-9.8-6.1c-1.3,0.2-2.4,0.8-3.3,1.8c-1.2,1.1-2.2,2.4-3.1,3.8
	c-0.8,1.3-1.2,4.7-1.2,10.1v2.5h19.4v13.1h-19.4v31.3H298.7z"/>
<path class="st7" d="M391.5,2.5v13h-14.1v63h-15v-63h-14.1v-13L391.5,2.5z"/>
</svg>
