<?xml version="1.0" standalone="no"?>
<!DOCTYPE svg PUBLIC "-//W3C//DTD SVG 20010904//EN"
 "http://www.w3.org/TR/2001/REC-SVG-20010904/DTD/svg10.dtd">
<svg version="1.0" xmlns="http://www.w3.org/2000/svg"
 width="700.000000pt" height="700.000000pt" viewBox="0 0 700.000000 700.000000"
 preserveAspectRatio="xMidYMid meet">
<metadata>
Created by potrace 1.14, written by Peter Selinger 2001-2017
</metadata>
<g transform="translate(0.000000,700.000000) scale(0.100000,-0.100000)"
fill="#000000" stroke="none">
<path d="M3265 6993 c-22 -2 -71 -7 -110 -13 -38 -5 -88 -12 -110 -16 -35 -4
-74 -11 -182 -30 -16 -3 -36 -7 -45 -10 -10 -3 -30 -8 -45 -10 -60 -11 -275
-75 -384 -115 -62 -23 -132 -48 -154 -56 -58 -20 -330 -155 -430 -213 -126
-73 -413 -266 -445 -300 -3 -3 -27 -23 -55 -45 -108 -85 -348 -324 -477 -475
-101 -119 -262 -343 -319 -445 -18 -33 -36 -62 -39 -65 -13 -10 -160 -309
-194 -394 -19 -47 -41 -100 -49 -118 -16 -35 -78 -223 -98 -298 -7 -25 -14
-49 -15 -55 -7 -21 -34 -131 -39 -155 -12 -60 -36 -203 -41 -242 -2 -24 -7
-52 -9 -63 -13 -62 -20 -230 -20 -450 1 -250 9 -399 29 -510 2 -11 7 -38 11
-60 12 -72 44 -220 60 -280 9 -33 18 -69 20 -79 7 -32 66 -205 101 -297 131
-346 342 -695 589 -974 131 -148 411 -413 570 -539 33 -26 67 -53 75 -59 27
-22 204 -133 270 -171 36 -20 72 -40 80 -46 31 -19 258 -129 320 -155 187 -79
397 -143 620 -191 19 -4 37 -8 40 -9 3 -1 30 -5 60 -9 30 -4 64 -10 75 -12 11
-2 47 -6 80 -10 338 -35 758 -27 1014 21 9 1 36 6 61 11 55 10 45 7 110 23
157 37 464 135 590 187 291 122 751 401 945 573 101 90 390 386 464 476 109
131 94 111 197 265 118 177 150 232 245 422 192 381 321 828 356 1233 15 160
6 725 -11 754 -2 3 -7 35 -10 70 -4 36 -8 67 -10 70 -2 3 -7 29 -10 56 -7 50
-50 244 -67 300 -108 355 -217 604 -380 863 -56 90 -209 303 -243 337 -6 7
-36 41 -66 76 -55 65 -325 338 -415 420 -262 238 -611 452 -950 582 -188 72
-385 132 -530 163 -11 2 -83 15 -160 28 -77 14 -158 28 -180 31 -38 7 -603 13
-690 8z m-288 -1369 c49 -7 40 -1 452 -305 145 -107 285 -210 312 -229 27 -19
119 -87 206 -151 179 -131 175 -129 205 -135 26 -5 275 -19 413 -23 29 -1 26
-4 -67 -98 l-97 -98 40 -85 c56 -117 125 -271 133 -297 9 -27 4 -29 -69 -38
-72 -8 -112 -13 -185 -25 -30 -5 -71 -11 -90 -14 -104 -14 -127 -19 -160 -30
-19 -7 -141 -77 -270 -157 -129 -80 -253 -156 -275 -169 -22 -12 -71 -44 -110
-70 -69 -46 -226 -144 -269 -167 -12 -7 -30 -21 -39 -31 -16 -17 -14 -22 39
-88 31 -38 80 -102 110 -141 30 -40 60 -81 69 -90 18 -23 195 -258 215 -286
56 -81 346 -451 433 -552 190 -219 278 -310 433 -446 95 -82 253 -189 282
-189 6 0 12 -3 11 -7 0 -8 -151 -139 -304 -265 l-81 -66 -34 56 c-62 106 -240
344 -490 657 -267 335 -350 438 -420 520 -41 50 -89 108 -107 130 -111 139
-218 272 -227 281 -6 7 -27 31 -46 55 -41 52 -170 199 -174 199 -1 0 -1 -80 0
-177 5 -323 13 -1085 14 -1258 l1 -170 85 -149 c46 -82 82 -152 79 -154 -11
-12 -689 -1 -701 11 -2 1 26 81 61 176 68 185 72 200 80 331 3 47 8 114 10
150 3 36 7 119 10 185 16 370 24 532 42 825 15 248 10 686 -12 1040 -1 25 -6
106 -10 180 -3 74 -8 160 -10 190 -2 30 -7 107 -10 170 -4 63 -9 129 -11 145
-2 17 -6 66 -9 110 -3 44 -8 94 -10 110 -3 17 -7 62 -10 100 -3 39 -8 77 -10
85 -3 8 -7 35 -10 60 -3 25 -8 63 -11 85 -8 62 -42 210 -59 257 -8 24 -15 49
-15 55 0 10 67 12 311 8 171 -2 332 -7 356 -11z"/>
<path d="M2837 5223 c-2 -5 -5 -326 -6 -714 l-2 -706 48 -2 c65 -3 93 -4 128
-2 29 1 96 46 489 328 60 43 145 104 190 136 205 146 276 200 276 207 0 20
-55 137 -74 158 -12 13 -66 49 -121 80 -55 30 -187 106 -293 169 -105 62 -194
113 -196 113 -3 0 -40 22 -83 48 -102 63 -332 192 -343 192 -5 0 -11 -3 -13
-7z"/>
</g>
</svg>
