<svg id="a67bec60-b58f-41c1-bb92-35a740f11172" data-name="b11599e5-760b-4926-8dd1-900dcfe314cf" xmlns="http://www.w3.org/2000/svg" viewBox="0 0 265 265"><defs><style>.a06a7b11-b763-49ee-b7ea-a1354b962dbf{fill:#476dae;}.bd61c687-693c-4271-b63d-49e5b8933c2b{fill:none;}</style></defs><path class="a06a7b11-b763-49ee-b7ea-a1354b962dbf" d="M256.73,132.5A124.23,124.23,0,0,0,132.53,8.27h-.06A124.23,124.23,0,1,0,256.73,132.5ZM124.94,237.3q-14.32,0-43.55,2.39v-3.58q15.31-4,21.28-17.3,6-13.12,6-47.53V82.39q0-25.85-6.16-38Q96.3,32.5,81.39,28.89V25.31q24.26,2,43.55,2.39ZM183.61,28.89q-11.73,2.19-19.49,12.73-8,10.93-8,45.14v94.86q0,30.63,8.35,41.16t19.09,13.32v3.58a349.51,349.51,0,0,0-43.75-2.39V27.7a357.28,357.28,0,0,0,43.75-2.39Z"/><path class="bd61c687-693c-4271-b63d-49e5b8933c2b" d="M77.32,28.89Q92.23,32.51,98.4,44.4q6.18,12.14,6.16,38v88.89q0,34.41-6,47.53-6,13.32-21.28,17.3v3.58q29.25-2.38,43.55-2.39V27.7q-19.26-.39-43.51-2.39Z"/><path class="bd61c687-693c-4271-b63d-49e5b8933c2b" d="M135.79,237.3a349.51,349.51,0,0,1,43.75,2.39v-3.58q-10.74-2.78-19.09-13.32t-8.35-41.16V86.76q0-34.2,8-45.14,7.77-10.54,19.49-12.73V25.31a357.28,357.28,0,0,1-43.75,2.39Z"/></svg>