<?xml version="1.0" standalone="no"?>
<!DOCTYPE svg PUBLIC "-//W3C//DTD SVG 20010904//EN"
 "http://www.w3.org/TR/2001/REC-SVG-20010904/DTD/svg10.dtd">
<svg version="1.0" xmlns="http://www.w3.org/2000/svg"
 width="512.000000pt" height="512.000000pt" viewBox="0 0 512.000000 512.000000"
 preserveAspectRatio="xMidYMid meet">
<metadata>
Created by potrace 1.14, written by Peter Selinger 2001-2017
</metadata>
<g transform="translate(0.000000,512.000000) scale(0.100000,-0.100000)"
fill="#000000" stroke="none">
<path d="M2330 5109 c-30 -4 -91 -13 -135 -20 -143 -20 -313 -65 -483 -127
-28 -10 -55 -22 -59 -25 -3 -4 -12 -7 -20 -7 -22 0 -236 -107 -345 -172 -91
-55 -275 -180 -288 -197 -3 -3 -23 -19 -45 -36 -81 -60 -301 -284 -385 -391
-55 -70 -83 -109 -133 -182 -31 -45 -57 -84 -57 -86 0 -2 -17 -33 -39 -67 -45
-76 -151 -293 -151 -312 0 -7 -4 -17 -9 -22 -9 -11 -28 -63 -68 -190 -78 -248
-113 -486 -113 -767 0 -225 17 -372 66 -583 53 -224 150 -470 252 -639 23 -37
42 -70 42 -73 0 -7 81 -125 144 -208 107 -140 359 -389 526 -518 137 -107 378
-242 555 -312 39 -15 79 -31 90 -35 32 -13 143 -47 230 -69 311 -82 720 -94
1075 -32 124 22 349 89 505 151 192 76 470 240 660 388 83 65 318 301 395 397
188 233 352 531 442 800 101 306 138 525 138 835 0 469 -119 899 -358 1290
-99 162 -216 305 -391 480 -218 217 -348 317 -591 452 -202 113 -529 223 -765
257 -44 7 -107 16 -141 22 -73 11 -467 10 -544 -2z m-112 -1007 c15 -9 82 -57
148 -107 127 -94 309 -228 457 -336 48 -35 104 -77 125 -92 20 -15 47 -34 58
-43 16 -11 64 -16 188 -21 l167 -6 -71 -72 -71 -72 70 -147 c46 -95 66 -148
58 -151 -7 -2 -34 -6 -62 -9 -27 -3 -79 -10 -115 -16 -36 -6 -96 -15 -134 -20
-44 -6 -83 -19 -105 -34 -86 -57 -394 -246 -401 -246 -5 0 -10 -4 -12 -8 -1
-5 -29 -24 -61 -43 -32 -19 -66 -39 -75 -44 -89 -56 -122 -78 -122 -82 0 -6
68 -92 80 -103 3 -3 17 -21 30 -40 14 -19 30 -42 37 -50 7 -8 67 -89 135 -179
68 -90 134 -178 148 -196 14 -18 44 -57 67 -87 23 -30 48 -61 55 -69 8 -8 20
-23 28 -35 16 -22 93 -112 170 -198 71 -79 140 -147 205 -201 33 -27 62 -53
65 -56 8 -10 93 -63 128 -80 l33 -15 -82 -69 c-45 -38 -87 -74 -93 -80 -6 -5
-33 -29 -61 -51 l-50 -41 -33 56 c-41 69 -121 178 -302 406 -129 163 -121 154
-156 194 -17 20 -37 45 -45 57 -8 11 -31 41 -51 65 -20 24 -63 76 -95 115 -32
39 -76 93 -98 119 -22 27 -51 63 -65 81 -46 59 -185 227 -218 263 l-33 36 6
-589 7 -588 31 -57 c17 -31 45 -81 63 -111 l32 -55 -81 -3 c-45 -2 -164 0
-264 3 l-182 7 13 27 c7 14 27 69 45 121 18 52 36 104 41 115 8 19 16 157 40
660 6 121 15 302 21 402 11 183 11 206 -22 818 -26 503 -59 784 -108 930 l-17
50 254 -3 c219 -2 257 -5 280 -20z"/>
<path d="M2070 3306 l0 -523 72 -5 c39 -3 76 -1 82 4 15 12 214 154 256 182
32 22 161 115 185 134 6 4 39 28 75 52 36 25 67 47 70 50 4 4 75 57 88 65 4 3
-41 110 -52 121 -6 7 -32 23 -58 38 -95 52 -137 76 -253 146 -65 38 -119 70
-122 70 -2 0 -43 24 -92 54 -96 58 -236 136 -245 136 -3 0 -6 -236 -6 -524z"/>
</g>
</svg>
